<svg width="284" height="284" xmlns="http://www.w3.org/2000/svg" class="svg-inline--fa fa-mobile-alt fa-w-10">
	<rect rx="31" height="284.148734" width="284.148734" y="0.473975" x="0.925628" stroke-opacity="null" fill="#84D3DB"/>
	<path d="m205.67178,9.56673l-125.34356,0c-14.82859,0 -26.85934,10.99981 -26.85934,24.55773l0,212.83366c0,13.55792 12.03075,24.55773 26.85934,24.55773l125.34356,0c14.82859,0 26.85934,-10.99981 26.85934,-24.55773l0,-212.83366c0,-13.55792 -12.03075,-24.55773 -26.85934,-24.55773zm-62.67178,245.5773c-9.90438,0 -17.90622,-7.31615 -17.90622,-16.37182s8.00184,-16.37182 17.90622,-16.37182s17.90622,7.31616 17.90622,16.37182s-8.00184,16.37182 -17.90622,16.37182zm62.67178,-55.25489c0,3.37669 -3.02167,6.13943 -6.71483,6.13943l-111.9139,0c-3.69316,0 -6.71483,-2.76274 -6.71483,-6.13943l0,-159.62525c0,-3.37669 3.02167,-6.13943 6.71483,-6.13943l111.9139,0c3.69316,0 6.71483,2.76274 6.71483,6.13943l0,159.62525z" fill="#33666C"/>
	<path d="m136.01531,165.20092l-10.36658,-3.008c-1.08764,-0.3059 -1.69944,-1.44453 -1.39354,-2.53217l23.19734,-79.90762c0.3059,-1.08764 1.44453,-1.69944 2.53217,-1.39354l10.36657,3.008c1.08765,0.3059 1.69944,1.44453 1.39354,2.53217l-23.19734,79.90762c-0.32289,1.08764 -1.44452,1.71644 -2.53216,1.39354zm-19.37361,-19.0677l7.39256,-7.8854c0.78175,-0.83272 0.73076,-2.15829 -0.13595,-2.92303l-15.39692,-13.54453l15.39692,-13.54453c0.86671,-0.76475 0.93469,-2.09031 0.13595,-2.92304l-7.39256,-7.88539c-0.76474,-0.81574 -2.05632,-0.86672 -2.88904,-0.08498l-24.48892,22.94243c-0.86671,0.79874 -0.86671,2.17528 0,2.97402l24.48892,22.95942c0.83272,0.78174 2.1243,0.74775 2.88904,-0.08497zm55.60565,0.10196l24.48892,-22.95942c0.86671,-0.79873 0.86671,-2.17528 0,-2.97402l-24.48892,-22.97641c-0.81573,-0.76475 -2.10731,-0.73076 -2.88905,0.08497l-7.39256,7.8854c-0.78174,0.83272 -0.73076,2.15829 0.13596,2.92303l15.39692,13.56153l-15.39692,13.54453c-0.86672,0.76474 -0.93469,2.09031 -0.13596,2.92303l7.39256,7.8854c0.76475,0.83272 2.05632,0.86671 2.88905,0.10196z" fill="#33666C"/>
</svg>